# xmcd
#
# Track frame offsets: 
#        150
#        24585
#        48825
#        76415
#        96853
#        116880
#        140158
#        164420
#        185060
#
# Disc length: 2807 seconds
#
# Revision: 0
# Processed by: cddbd v1.5.2PL0 Copyright (c) Steve Scherf et al.
# Submitted via: ExactAudioCopy v0.99pb4
#
DISCID=7c0af509
DTITLE=Sunfire - Sunfire
DYEAR=1982
DGENRE=R&B
TTITLE0=Shake Your Body
TTITLE1=Step In The Light
TTITLE2=Feet
TTITLE3=Givin' Away My Heart
TTITLE4=Keep Rockin' My Love
TTITLE5=Millionaire
TTITLE6=Sexy Lady
TTITLE7=Young, Free And Single
TTITLE8=Never Too Late For Your Lovin' [Bonus Track]
EXTD=
EXTT0=
EXTT1=
EXTT2=
EXTT3=
EXTT4=
EXTT5=
EXTT6=
EXTT7=
EXTT8=
PLAYORDER=
